arm260_states
version=1
nRows=31
nColumns=17
inDegrees=yes

# SIMM Motion File Header:
name arm260_states
datacolumns 17
datarows 31
otherdata 1
range 1.08399054 1.17655078
endheader
time	/jointset/r_shoulder/r_shoulder_elev/value	/jointset/r_shoulder/r_shoulder_elev/speed	/jointset/r_elbow/r_elbow_flex/value	/jointset/r_elbow/r_elbow_flex/speed	/forceset/TRIlong/activation	/forceset/TRIlong/fiber_length	/forceset/TRIlat/activation	/forceset/TRIlat/fiber_length	/forceset/TRImed/activation	/forceset/TRImed/fiber_length	/forceset/BIClong/activation	/forceset/BIClong/fiber_length	/forceset/BICshort/activation	/forceset/BICshort/fiber_length	/forceset/BRA/activation	/forceset/BRA/fiber_length
      1.08399054	     -0.00169134	      0.04050660	     30.00155157	     -0.03504368	      0.03603151	      0.14809187	      0.12633615	      0.08148123	      0.12166714	      0.07658148	      0.15726332	      0.13822815	      0.11160052	      0.13727653	      0.06395773	      0.08595541
      1.08705276	     -0.00157111	      0.03799967	     30.00145495	     -0.02804825	      0.03603020	      0.14809192	      0.12631269	      0.08148130	      0.12166047	      0.07658148	      0.15724751	      0.13822815	      0.11158017	      0.13727682	      0.06395250	      0.08595546
      1.09117836	     -0.00142120	      0.03472237	     30.00135807	     -0.01910813	      0.03602852	      0.14809198	      0.12628730	      0.08148139	      0.12165066	      0.07658146	      0.15728058	      0.13822813	      0.11155524	      0.13727719	      0.06394593	      0.08595553
      1.09530395	     -0.00128424	      0.03186804	     30.00129610	     -0.01154668	      0.03602694	      0.14809206	      0.12627496	      0.08148147	      0.12163757	      0.07658146	      0.15728077	      0.13822811	      0.11153145	      0.13727753	      0.06393955	      0.08595559
      1.09942954	     -0.00115839	      0.02922103	     30.00126295	     -0.00480749	      0.03602544	      0.14809213	      0.12627536	      0.08148152	      0.12162347	      0.07658147	      0.15728918	      0.13822808	      0.11150854	      0.13727786	      0.06393348	      0.08595564
      1.10419453	     -0.00102496	      0.02690266	     30.00125371	      0.00049938	      0.03602382	      0.14809222	      0.12628051	      0.08148153	      0.12160343	      0.07658150	      0.15726460	      0.13822803	      0.11148317	      0.13727820	      0.06392714	      0.08595569
      1.10824702	     -0.00091774	      0.02603470	     30.00125802	      0.00157027	      0.03602252	      0.14809230	      0.12626771	      0.08148157	      0.12157046	      0.07658156	      0.15727091	      0.13822801	      0.11146706	      0.13727847	      0.06392284	      0.08595573
      1.11120995	     -0.00084127	      0.02552855	     30.00126284	      0.00184249	      0.03602161	      0.14809236	      0.12624144	      0.08148161	      0.12153130	      0.07658162	      0.15732939	      0.13822794	      0.11145985	      0.13727865	      0.06392080	      0.08595575
      1.11530317	     -0.00073892	      0.02439022	     30.00127333	      0.00357902	      0.03602042	      0.14809245	      0.12624855	      0.08148167	      0.12151514	      0.07658173	      0.15730858	      0.13822786	      0.11144266	      0.13727888	      0.06391618	      0.08595577
      1.11921727	     -0.00064599	      0.02300255	     30.00129182	      0.00616803	      0.03601934	      0.14809253	      0.12626040	      0.08148168	      0.12150799	      0.07658181	      0.15732489	      0.13822776	      0.11142875	      0.13727908	      0.06391187	      0.08595580
      1.12313138	     -0.00055849	      0.02167318	     30.00132036	      0.00852296	      0.03601832	      0.14809261	      0.12624688	      0.08148170	      0.12148697	      0.07658189	      0.15731655	      0.13822768	      0.11141775	      0.13727927	      0.06390864	      0.08595581
      1.12891251	     -0.00043836	      0.01996147	     30.00137792	      0.01113729	      0.03601691	      0.14809272	      0.12624766	      0.08148174	      0.12149022	      0.07658200	      0.15732270	      0.13822758	      0.11140043	      0.13727951	      0.06390346	      0.08595583
      1.13516348	     -0.00031829	      0.01841308	     30.00145337	      0.01319298	      0.03601551	      0.14809285	      0.12623233	      0.08148179	      0.12149054	      0.07658205	      0.15734552	      0.13822743	      0.11138660	      0.13727973	      0.06389866	      0.08595585
      1.14141445	     -0.00020628	      0.01730481	     30.00153703	      0.01397716	      0.03601422	      0.14809297	      0.12620624	      0.08148186	      0.12148041	      0.07658211	      0.15735947	      0.13822729	      0.11137532	      0.13727991	      0.06389460	      0.08595586
      1.14766543	     -0.00010113	      0.01640499	     30.00162558	      0.01413963	      0.03601304	      0.14809309	      0.12619290	      0.08148196	      0.12152225	      0.07658210	      0.15734247	      0.13822713	      0.11136231	      0.13728006	      0.06389055	      0.08595586
      1.15316874	     -0.00001077	      0.01670931	     30.00169726	      0.01105830	      0.03601209	      0.14809320	      0.12617893	      0.08148206	      0.12152370	      0.07658212	      0.15733458	      0.13822706	      0.11135490	      0.13728016	      0.06388778	      0.08595586
      1.15676347	      0.00004918	      0.01667684	     30.00173475	      0.00969649	      0.03601150	      0.14809326	      0.12616670	      0.08148212	      0.12150979	      0.07658213	      0.15735483	      0.13822700	      0.11135162	      0.13728022	      0.06388637	      0.08595586
      1.15812594	      0.00007185	      0.01658397	     30.00174776	      0.00942265	      0.03599870	      0.14809329	      0.12627045	      0.08148212	      0.12154883	      0.07658212	      0.15740434	      0.13822698	      0.11134721	      0.13728025	      0.06375060	      0.08595586
      1.15919003	      0.00008946	      0.01654191	     30.00175766	      0.00911378	      0.03595180	      0.14809336	      0.12639132	      0.08148200	      0.12148281	      0.07658211	      0.15762299	      0.13822684	      0.11137853	      0.13728026	      0.06321669	      0.08595607
      1.16025413	      0.00010713	      0.01667448	     30.00176694	      0.00832335	      0.03596023	      0.14809344	      0.12602610	      0.08148200	      0.12119374	      0.07658219	      0.15752360	      0.13822670	      0.11152474	      0.13728018	      0.06312054	      0.08595638
      1.16162212	      0.00013005	      0.01684025	     30.00177765	      0.00733139	      0.03596893	      0.14809352	      0.12563306	      0.08148220	      0.12081043	      0.07658244	      0.15747976	      0.13822658	      0.11148564	      0.13728004	      0.06287996	      0.08595684
      1.16301217	      0.00015356	      0.01700046	     30.00178721	      0.00638650	      0.03597582	      0.14809358	      0.12555451	      0.08148250	      0.12075675	      0.07658278	      0.15723526	      0.13822657	      0.11145194	      0.13727996	      0.06291011	      0.08595732
      1.16440223	      0.00017726	      0.01709118	     30.00179556	      0.00565139	      0.03598119	      0.14809363	      0.12552840	      0.08148278	      0.12073331	      0.07658308	      0.15691478	      0.13822669	      0.11141368	      0.13727993	      0.06284880	      0.08595773
      1.16618731	      0.00020788	      0.01724497	     30.00180479	      0.00457809	      0.03598637	      0.14809367	      0.12556487	      0.08148308	      0.12078330	      0.07658341	      0.15664906	      0.13822702	      0.11142489	      0.13727995	      0.06281634	      0.08595821
      1.16797239	      0.00023880	      0.01734953	     30.00181197	      0.00362605	      0.03599013	      0.14809370	      0.12543885	      0.08148338	      0.12067331	      0.07658371	      0.15671197	      0.13822737	      0.11156064	      0.13727979	      0.06279940	      0.08595862
      1.16975747	      0.00026968	      0.01722229	     30.00181812	      0.00333728	      0.03599285	      0.14809373	      0.12541294	      0.08148369	      0.12065398	      0.07658402	      0.15686129	      0.13822762	      0.11153943	      0.13727960	      0.06279106	      0.08595898
      1.17154255	      0.00030012	      0.01688596	     30.00182439	      0.00365405	      0.03599482	      0.14809375	      0.12570007	      0.08148387	      0.12064281	      0.07658428	      0.15692103	      0.13822781	      0.11151294	      0.13727949	      0.06279848	      0.08595927
      1.17332763	      0.00032983	      0.01639777	     30.00183155	      0.00439166	      0.03599624	      0.14809377	      0.12569361	      0.08148395	      0.12060087	      0.07658452	      0.15711268	      0.13822790	      0.11157450	      0.13727934	      0.06268277	      0.08595953
      1.17440201	      0.00034732	      0.01616641	     30.00183643	      0.00462837	      0.03599185	      0.14809378	      0.12580353	      0.08148397	      0.12066349	      0.07658465	      0.15715936	      0.13822792	      0.11154898	      0.13727925	      0.06256320	      0.08595974
      1.17547640	      0.00036464	      0.01611320	     30.00184130	      0.00432417	      0.03596852	      0.14809381	      0.12587173	      0.08148392	      0.12091276	      0.07658468	      0.15721158	      0.13822792	      0.11150984	      0.13727921	      0.06259992	      0.08595994
      1.17655078	      0.00038200	      0.01623983	     30.00184553	      0.00347655	      0.03597407	      0.14809385	      0.12578498	      0.08148391	      0.12084886	      0.07658470	      0.15734913	      0.13822786	      0.11148578	      0.13727920	      0.06260826	      0.08596010
